<svg width="200" height="200" viewBox="0 0 200 200" fill="none" xmlns="http://www.w3.org/2000/svg">
  <circle cx="100" cy="100" r="100" fill="#F5F5F5"/>
  <path d="M100 50C83.4315 50 70 63.4315 70 80C70 91.5 76 101.5 85 106.5C85 106.5 80 120 80 130C80 140 85 150 100 150C115 150 120 140 120 130C120 120 115 106.5 115 106.5C124 101.5 130 91.5 130 80C130 63.4315 116.569 50 100 50Z" fill="#8B7355"/>
  <path d="M100 110C85 110 70 120 65 130C60 140 60 150 60 160C60 170 70 180 100 180C130 180 140 170 140 160C140 150 140 140 135 130C130 120 115 110 100 110Z" fill="#8B7355"/>
</svg>