<svg width="200" height="200" viewBox="0 0 200 200" fill="none" xmlns="http://www.w3.org/2000/svg">
  <circle cx="100" cy="100" r="100" fill="#F5F5F5"/>
  <path d="M100 40C80 40 65 55 65 75C65 85 70 93 75 98C75 98 70 105 70 115C70 125 75 130 85 135C85 135 80 140 80 150C80 160 90 165 100 165C110 165 120 160 120 150C120 140 115 135 115 135C125 130 130 125 130 115C130 105 125 98 125 98C130 93 135 85 135 75C135 55 120 40 100 40Z" fill="#8B7355"/>
  <path d="M100 110C85 110 70 120 65 130C60 140 60 150 60 160C60 170 70 180 100 180C130 180 140 170 140 160C140 150 140 140 135 130C130 120 115 110 100 110Z" fill="#8B7355"/>
  <circle cx="100" cy="75" r="35" fill="#8B7355"/>
</svg>